<svg width="304" height="152" viewBox="0 0 304 152" fill="none" xmlns="http://www.w3.org/2000/svg">
<rect width="304" height="152" fill="white"/>
<g clip-path="url(#clip0_892_28)">
<path d="M184.46 22.6992C170.729 22.8888 158.741 32.1559 151.706 46.1141C144.3 32.122 131.947 23.0174 118.08 23.2069C95.9214 23.5183 78.2906 47.4138 78.6961 76.5826C79.1015 105.751 97.3878 129.146 119.539 128.841C133.271 128.652 145.259 119.385 152.294 105.426C159.693 119.418 172.047 128.523 185.913 128.327C208.065 128.022 225.696 104.127 225.297 74.958C224.891 45.7892 206.605 22.3946 184.454 22.6992H184.46Z" fill="white"/>
<path d="M119.1 130.533C108.018 130.533 97.5636 124.962 89.6301 114.808C81.6898 104.648 77.2095 91.0822 77.0068 76.6027C76.5878 46.5472 95.0024 21.8394 118.053 21.5145C131.244 21.3249 143.597 29.1637 151.666 42.6075C159.376 29.1976 171.445 21.1828 184.433 21C184.582 21 184.738 21 184.886 21C207.734 21 226.574 45.0715 226.993 74.9307C227.412 104.986 208.998 129.694 185.947 130.019C172.763 130.209 160.403 122.377 152.335 108.926C144.624 122.336 132.555 130.357 119.567 130.533C119.411 130.533 119.256 130.533 119.107 130.533H119.1ZM118.499 24.8991C118.364 24.8991 118.229 24.8991 118.1 24.8991C96.9149 25.1969 79.9937 48.3681 80.3856 76.5554C80.5748 90.297 84.8051 103.138 92.2926 112.717C99.5774 122.031 109.085 127.149 119.107 127.149C119.242 127.149 119.377 127.149 119.519 127.149C132.089 126.973 143.779 118.565 150.794 104.661C151.078 104.099 151.652 103.741 152.287 103.734H152.301C152.922 103.734 153.504 104.079 153.794 104.634C161.092 118.444 172.925 126.641 185.501 126.641C185.636 126.641 185.771 126.641 185.907 126.641C207.092 126.35 224.013 103.172 223.621 74.9849C223.236 46.9804 205.903 24.3914 184.9 24.3914C184.765 24.3914 184.629 24.3914 184.494 24.3914C171.925 24.5674 160.234 32.9748 153.22 46.8789C152.936 47.4407 152.362 47.7995 151.726 47.8063C151.125 47.8198 150.51 47.4678 150.219 46.906C142.908 33.0967 131.075 24.8991 118.499 24.8991V24.8991Z" fill="#48302A"/>
<path d="M118.715 96.8024C127.687 96.8024 134.961 87.3829 134.961 75.7635C134.961 64.144 127.687 54.7246 118.715 54.7246C109.743 54.7246 102.47 64.144 102.47 75.7635C102.47 87.3829 109.743 96.8024 118.715 96.8024Z" fill="#49302B"/>
<path d="M185.285 96.8024C194.257 96.8024 201.53 87.3829 201.53 75.7635C201.53 64.144 194.257 54.7246 185.285 54.7246C176.313 54.7246 169.04 64.144 169.04 75.7635C169.04 87.3829 176.313 96.8024 185.285 96.8024Z" fill="#49302B"/>
</g>
<defs>
<clipPath id="clip0_892_28">
<rect width="150" height="109.533" fill="white" transform="translate(77 21)"/>
</clipPath>
</defs>
</svg>
