<svg width="16" height="16" viewBox="0 0 16 16" fill="none" xmlns="http://www.w3.org/2000/svg">
<path d="M12 2.66666H11.3333V1.99999C11.3333 1.82318 11.2631 1.65361 11.1381 1.52859C11.013 1.40357 10.8435 1.33333 10.6667 1.33333C10.4899 1.33333 10.3203 1.40357 10.1953 1.52859C10.0702 1.65361 10 1.82318 10 1.99999V2.66666H6V1.99999C6 1.82318 5.92976 1.65361 5.80474 1.52859C5.67971 1.40357 5.51014 1.33333 5.33333 1.33333C5.15652 1.33333 4.98695 1.40357 4.86193 1.52859C4.7369 1.65361 4.66667 1.82318 4.66667 1.99999V2.66666H4C3.46957 2.66666 2.96086 2.87738 2.58579 3.25245C2.21071 3.62752 2 4.13623 2 4.66666V12.6667C2 13.1971 2.21071 13.7058 2.58579 14.0809C2.96086 14.4559 3.46957 14.6667 4 14.6667H12C12.5304 14.6667 13.0391 14.4559 13.4142 14.0809C13.7893 13.7058 14 13.1971 14 12.6667V4.66666C14 4.13623 13.7893 3.62752 13.4142 3.25245C13.0391 2.87738 12.5304 2.66666 12 2.66666ZM4 3.99999H4.66667V4.66666C4.66667 4.84347 4.7369 5.01304 4.86193 5.13807C4.98695 5.26309 5.15652 5.33333 5.33333 5.33333C5.51014 5.33333 5.67971 5.26309 5.80474 5.13807C5.92976 5.01304 6 4.84347 6 4.66666V3.99999H10V4.66666C10 4.84347 10.0702 5.01304 10.1953 5.13807C10.3203 5.26309 10.4899 5.33333 10.6667 5.33333C10.8435 5.33333 11.013 5.26309 11.1381 5.13807C11.2631 5.01304 11.3333 4.84347 11.3333 4.66666V3.99999H12C12.1768 3.99999 12.3464 4.07023 12.4714 4.19526C12.5964 4.32028 12.6667 4.48985 12.6667 4.66666V7.33333H3.33333V4.66666C3.33333 4.48985 3.40357 4.32028 3.5286 4.19526C3.65362 4.07023 3.82319 3.99999 4 3.99999ZM12 13.3333H4C3.82319 13.3333 3.65362 13.2631 3.5286 13.1381C3.40357 13.013 3.33333 12.8435 3.33333 12.6667V8.66666H12.6667V12.6667C12.6667 12.8435 12.5964 13.013 12.4714 13.1381C12.3464 13.2631 12.1768 13.3333 12 13.3333Z" fill="#13202D" fill-opacity="0.6"/>
<path d="M5.33317 11.3333C5.70136 11.3333 5.99984 11.0349 5.99984 10.6667C5.99984 10.2985 5.70136 10 5.33317 10C4.96498 10 4.6665 10.2985 4.6665 10.6667C4.6665 11.0349 4.96498 11.3333 5.33317 11.3333Z" fill="#13202D" fill-opacity="0.6"/>
<path d="M10.6668 10H8.00016C7.82335 10 7.65378 10.0702 7.52876 10.1953C7.40373 10.3203 7.3335 10.4899 7.3335 10.6667C7.3335 10.8435 7.40373 11.013 7.52876 11.1381C7.65378 11.2631 7.82335 11.3333 8.00016 11.3333H10.6668C10.8436 11.3333 11.0132 11.2631 11.1382 11.1381C11.2633 11.013 11.3335 10.8435 11.3335 10.6667C11.3335 10.4899 11.2633 10.3203 11.1382 10.1953C11.0132 10.0702 10.8436 10 10.6668 10Z" fill="#13202D" fill-opacity="0.6"/>
</svg>
