<svg width="16" height="16" viewBox="0 0 16 16" fill="none" xmlns="http://www.w3.org/2000/svg">
<path d="M8.00017 1.33334C6.68162 1.33334 5.39269 1.72434 4.29636 2.45688C3.20004 3.18942 2.34555 4.23061 1.84097 5.44879C1.33638 6.66696 1.20436 8.0074 1.4616 9.30061C1.71883 10.5938 2.35377 11.7817 3.28612 12.7141C4.21847 13.6464 5.40636 14.2813 6.69956 14.5386C7.99277 14.7958 9.33322 14.6638 10.5514 14.1592C11.7696 13.6546 12.8108 12.8001 13.5433 11.7038C14.2758 10.6075 14.6668 9.31855 14.6668 8.00001C14.6668 7.12453 14.4944 6.25762 14.1594 5.44879C13.8243 4.63995 13.3333 3.90502 12.7142 3.28596C12.0952 2.66691 11.3602 2.17584 10.5514 1.84081C9.74255 1.50578 8.87565 1.33334 8.00017 1.33334ZM10.6668 8.66668H8.00017C7.82336 8.66668 7.65379 8.59644 7.52876 8.47141C7.40374 8.34639 7.3335 8.17682 7.3335 8.00001V5.33334C7.3335 5.15653 7.40374 4.98696 7.52876 4.86194C7.65379 4.73691 7.82336 4.66668 8.00017 4.66668C8.17698 4.66668 8.34655 4.73691 8.47157 4.86194C8.59659 4.98696 8.66683 5.15653 8.66683 5.33334V7.33334H10.6668C10.8436 7.33334 11.0132 7.40358 11.1382 7.52861C11.2633 7.65363 11.3335 7.8232 11.3335 8.00001C11.3335 8.17682 11.2633 8.34639 11.1382 8.47141C11.0132 8.59644 10.8436 8.66668 10.6668 8.66668Z" fill="#13202D" fill-opacity="0.6"/>
</svg>
