<svg width="16" height="16" viewBox="0 0 16 16" fill="none" xmlns="http://www.w3.org/2000/svg">
<path d="M14.5799 7.66665C14.1532 6.92665 11.8066 3.21332 7.81988 3.33332C4.13322 3.42665 1.99988 6.66665 1.41988 7.66665C1.36137 7.768 1.33057 7.88296 1.33057 7.99999C1.33057 8.11701 1.36137 8.23197 1.41988 8.33332C1.83988 9.05999 4.08655 12.6667 8.01322 12.6667H8.17988C11.8666 12.5733 14.0066 9.33332 14.5799 8.33332C14.6384 8.23197 14.6692 8.11701 14.6692 7.99999C14.6692 7.88296 14.6384 7.768 14.5799 7.66665ZM8.14655 11.3333C5.27322 11.4 3.39988 8.93999 2.81322 7.99999C3.47988 6.92665 5.21988 4.73332 7.88655 4.66665C10.7465 4.59332 12.6265 7.05999 13.2199 7.99999C12.5332 9.07332 10.8132 11.2667 8.14655 11.3333Z" fill="#13202D" fill-opacity="0.6"/>
<path d="M7.99984 5.66669C7.53835 5.66669 7.08722 5.80353 6.70351 6.05992C6.31979 6.31631 6.02072 6.68073 5.84412 7.10709C5.66751 7.53345 5.62131 8.00261 5.71134 8.45523C5.80137 8.90785 6.0236 9.32361 6.34992 9.64994C6.67625 9.97626 7.09201 10.1985 7.54463 10.2885C7.99725 10.3786 8.46641 10.3323 8.89277 10.1557C9.31913 9.97913 9.68354 9.68007 9.93993 9.29635C10.1963 8.91264 10.3332 8.46151 10.3332 8.00002C10.3332 7.38118 10.0873 6.78769 9.64975 6.3501C9.21217 5.91252 8.61868 5.66669 7.99984 5.66669ZM7.99984 9.00002C7.80206 9.00002 7.60872 8.94137 7.44427 8.83149C7.27982 8.72161 7.15165 8.56543 7.07596 8.3827C7.00027 8.19998 6.98047 7.99891 7.01905 7.80493C7.05764 7.61095 7.15288 7.43277 7.29273 7.29291C7.43258 7.15306 7.61077 7.05782 7.80475 7.01923C7.99873 6.98065 8.1998 7.00045 8.38252 7.07614C8.56525 7.15183 8.72143 7.28 8.83131 7.44445C8.94119 7.6089 8.99984 7.80224 8.99984 8.00002C8.99984 8.26524 8.89448 8.51959 8.70695 8.70713C8.51941 8.89466 8.26505 9.00002 7.99984 9.00002Z" fill="#13202D" fill-opacity="0.6"/>
</svg>
