<svg width="310" height="75" viewBox="0 0 310 75" fill="none" xmlns="http://www.w3.org/2000/svg">
<g clip-path="url(#clip0_703_60)">
<path d="M46.107 56.0119L32.6967 34.1957C37.5087 31.9578 41.4196 27.9869 42.5986 21.1211C42.915 19.8165 43.0779 18.4262 43.0779 16.9407C43.0779 13.7221 42.4644 11.0367 41.2471 8.87506C40.0201 6.71343 38.3905 4.9708 36.3488 3.65668C34.3071 2.34256 31.9969 1.39982 29.4184 0.847511C26.8398 0.2952 24.2038 0.0190449 21.491 0.0190449H0V56.0119H13.2953V36.5382C15.1166 36.7191 17.2925 36.8429 19.6027 36.8048L30.1756 56.0024H46.107V56.0119Z" fill="#5595D1"/>
<path d="M31.7381 9.08456C29.3033 8.95125 27.0603 10.4368 25.6416 12.8079C24.5009 10.2558 22.4208 8.50368 19.9573 8.37037C16.0272 8.16087 12.6051 12.1508 12.3272 17.2835C12.0492 22.4162 15.0111 26.7585 18.9413 26.968C21.376 27.1013 23.6191 25.6158 25.0377 23.2447C26.1784 25.7967 28.2585 27.5489 30.722 27.6822C34.6521 27.8917 38.0742 23.9017 38.3522 18.769C38.6302 13.6364 35.6682 9.29406 31.7381 9.08456Z" fill="white"/>
<path d="M85.6861 36.7858V38.3666C85.6861 38.8903 85.6574 39.395 85.6094 39.8711H56.8621C56.9675 40.9757 57.303 41.9851 57.859 42.8803C58.4149 43.7754 59.1339 44.5562 60.0062 45.2133C60.8784 45.8704 61.8658 46.3846 62.9489 46.756C64.0321 47.1273 65.1632 47.3083 66.3327 47.3083C68.4032 47.3083 70.1574 46.9274 71.5856 46.1656C73.0235 45.4038 74.1833 44.4134 75.094 43.1945L84.1716 48.889C82.312 51.5744 79.858 53.6503 76.8098 55.0978C73.752 56.5452 70.2149 57.2689 66.1793 57.2689C63.2078 57.2689 60.3896 56.8023 57.7344 55.8881C55.0791 54.9645 52.7594 53.6218 50.7656 51.8506C48.7718 50.0794 47.2093 47.9082 46.0686 45.3276C44.9279 42.747 44.3528 39.7854 44.3528 36.4716C44.3528 33.1577 44.9087 30.339 46.0207 27.7298C47.1326 25.1206 48.6472 22.9019 50.5643 21.083C52.4718 19.2642 54.734 17.8549 57.3318 16.855C59.9295 15.8551 62.7477 15.3504 65.7767 15.3504C68.8058 15.3504 71.3747 15.8361 73.8191 16.8169C76.2634 17.7977 78.3531 19.2071 80.1073 21.0449C81.8614 22.8923 83.2226 25.1301 84.2099 27.7679C85.1877 30.4057 85.6861 33.4148 85.6861 36.7858ZM73.6657 31.8055C73.6657 29.7486 73.0139 27.9869 71.7102 26.5014C70.4066 25.0254 68.4607 24.2826 65.8534 24.2826C64.5785 24.2826 63.4091 24.4826 62.3451 24.873C61.281 25.273 60.3512 25.8062 59.5556 26.4919C58.76 27.1775 58.1178 27.9869 57.6481 28.9011C57.1688 29.8248 56.9004 30.7866 56.8525 31.7864H73.6561L73.6657 31.8055Z" fill="#13202D"/>
<path d="M115.546 28.244C114.482 27.2442 113.235 26.3966 111.807 25.711C110.369 25.0254 108.864 24.6826 107.264 24.6826C106.037 24.6826 104.915 24.9206 103.88 25.3968C102.845 25.8729 102.327 26.6918 102.327 27.8536C102.327 29.0154 102.893 29.7486 104.043 30.2247C105.183 30.7009 107.034 31.2246 109.574 31.8055C111.059 32.1197 112.564 32.5673 114.069 33.1482C115.584 33.7291 116.945 34.4909 118.172 35.4431C119.389 36.3954 120.377 37.5571 121.115 38.9284C121.853 40.2996 122.227 41.9375 122.227 43.8325C122.227 46.3084 121.719 48.4129 120.712 50.1174C119.706 51.8315 118.393 53.2123 116.773 54.2693C115.153 55.3263 113.331 56.0881 111.318 56.5642C109.296 57.0404 107.283 57.2784 105.27 57.2784C102.03 57.2784 98.8569 56.7642 95.7512 55.7358C92.6454 54.7073 90.0573 53.1932 87.9868 51.184L95.3103 43.5088C96.4797 44.7753 97.908 45.8323 99.6142 46.6703C101.311 47.5178 103.123 47.9368 105.03 47.9368C106.094 47.9368 107.139 47.6892 108.174 47.1845C109.209 46.6798 109.727 45.8037 109.727 44.5372C109.727 43.2707 109.085 42.4327 107.82 41.8518C106.554 41.2709 104.551 40.6615 101.848 40.033C100.467 39.7188 99.087 39.2902 97.7067 38.7665C96.3263 38.2428 95.0898 37.5286 94.0066 36.6334C92.9138 35.7383 92.032 34.6337 91.3418 33.3101C90.6516 31.9959 90.3065 30.4152 90.3065 28.5678C90.3065 26.1967 90.8146 24.1779 91.8211 22.5114C92.8276 20.8545 94.1312 19.4928 95.7224 18.4358C97.3137 17.3787 99.0774 16.6074 101.014 16.1027C102.95 15.598 104.877 15.3504 106.784 15.3504C109.756 15.3504 112.66 15.817 115.507 16.7312C118.345 17.6549 120.751 19.0357 122.716 20.8831L115.546 28.244Z" fill="#13202D"/>
<path d="M145.568 26.2633V41.3567C145.568 43.2136 145.922 44.5943 146.641 45.5275C147.36 46.4512 148.645 46.9178 150.504 46.9178C151.146 46.9178 151.817 46.8702 152.536 46.756C153.255 46.6512 153.85 46.4893 154.329 46.2798L154.492 55.7739C153.591 56.0881 152.45 56.3643 151.07 56.6023C149.689 56.8404 148.309 56.9547 146.929 56.9547C144.274 56.9547 142.04 56.6214 140.238 55.9643C138.436 55.3073 136.988 54.355 135.896 53.1075C134.803 51.8696 134.027 50.3841 133.547 48.67C133.068 46.9559 132.828 45.0324 132.828 42.9184V26.2633H126.454V16.6169H132.742V6.24683H145.568V16.6074H154.885V26.2538H145.568V26.2633Z" fill="#13202D"/>
<path d="M161.729 56.0119V0H199.631V11.389H174.861V21.9877H198.27V32.8244H174.861V44.4515H201.059V56.0024H161.719L161.729 56.0119Z" fill="#5595D1"/>
<path d="M230.775 61.9445C229.979 64.0014 229.087 65.8297 228.11 67.439C227.122 69.0484 225.963 70.4196 224.601 71.5528C223.25 72.686 221.659 73.543 219.828 74.1239C217.997 74.7048 215.83 74.9905 213.338 74.9905C212.111 74.9905 210.856 74.9143 209.552 74.7524C208.248 74.5905 207.127 74.381 206.168 74.1239L207.606 63.211C208.239 63.4205 208.948 63.5919 209.715 63.7252C210.482 63.8586 211.191 63.9252 211.824 63.9252C213.837 63.9252 215.303 63.4586 216.204 62.5444C217.105 61.6207 217.882 60.3161 218.514 58.6306L219.789 55.3834L203.225 16.6169H217.719L226.557 41.928H226.796L234.676 16.6169H248.537L230.775 61.9445Z" fill="#13202D"/>
<path d="M289.698 36.7858V38.3666C289.698 38.8903 289.669 39.395 289.621 39.8711H260.874C260.979 40.9757 261.314 41.9851 261.87 42.8803C262.426 43.7754 263.145 44.5562 264.018 45.2133C264.89 45.8704 265.877 46.3846 266.96 46.756C268.044 47.1273 269.175 47.3083 270.344 47.3083C272.415 47.3083 274.169 46.9274 275.597 46.1656C277.035 45.4038 278.195 44.4134 279.105 43.1945L288.183 48.889C286.323 51.5744 283.87 53.6503 280.821 55.0978C277.773 56.5452 274.226 57.2689 270.191 57.2689C267.219 57.2689 264.401 56.8023 261.746 55.8881C259.091 54.9645 256.771 53.6218 254.777 51.8506C252.783 50.0794 251.221 47.9082 250.08 45.3276C248.939 42.747 248.364 39.7854 248.364 36.4716C248.364 33.1577 248.92 30.339 250.032 27.7298C251.144 25.1206 252.659 22.9019 254.576 21.083C256.493 19.2642 258.746 17.8549 261.343 16.855C263.941 15.8551 266.759 15.3504 269.788 15.3504C272.817 15.3504 275.386 15.8361 277.831 16.8169C280.275 17.7977 282.374 19.2071 284.119 21.0449C285.873 22.8923 287.234 25.1301 288.221 27.7679C289.199 30.4057 289.698 33.4148 289.698 36.7858ZM277.677 31.8055C277.677 29.7486 277.025 27.9869 275.722 26.5014C274.418 25.0254 272.472 24.2826 269.865 24.2826C268.59 24.2826 267.421 24.4826 266.357 24.873C265.293 25.273 264.363 25.8062 263.567 26.4919C262.771 27.1775 262.129 27.9869 261.66 28.9011C261.18 29.8248 260.912 30.7866 260.864 31.7864H277.668L277.677 31.8055Z" fill="#13202D"/>
<path d="M310 49.0509C310 51.2697 309.214 53.1171 307.652 54.5931C306.089 56.0691 304.21 56.8118 302.034 56.8118C300.922 56.8118 299.868 56.6119 298.89 56.2214C297.903 55.8215 297.05 55.2882 296.302 54.6026C295.554 53.917 294.979 53.1171 294.548 52.1934C294.126 51.2697 293.906 50.2508 293.906 49.1461C293.906 48.0415 294.117 47.0893 294.548 46.137C294.97 45.1847 295.554 44.3563 296.302 43.6421C297.05 42.9279 297.903 42.366 298.89 41.9375C299.868 41.5185 300.922 41.2995 302.034 41.2995C304.21 41.2995 306.08 42.0423 307.652 43.5183C309.214 44.9943 310 46.8417 310 49.0604V49.0509Z" fill="#5595D1"/>
<path d="M32.4858 23.2732C32.2941 23.2732 32.1024 23.2637 31.8915 23.2351C28.5174 22.7876 27.8464 19.4928 27.8176 19.3499C27.7217 18.8357 28.0572 18.331 28.5749 18.2358C29.0925 18.1406 29.591 18.4738 29.6964 18.9881C29.7156 19.0833 30.1565 21.083 32.1503 21.3497C34.077 21.6068 34.8918 19.5118 34.9302 19.4166C35.1123 18.9309 35.6683 18.6738 36.1667 18.8547C36.6652 19.0357 36.9144 19.5785 36.7323 20.0736C36.3009 21.2354 34.9014 23.2732 32.4954 23.2732H32.4858Z" fill="#5595D1"/>
<path d="M20.8872 22.5305C20.6955 22.5305 20.5038 22.521 20.2929 22.4924C16.9187 22.0448 16.2477 18.75 16.219 18.6072C16.1231 18.0929 16.4586 17.5882 16.9762 17.493C17.5034 17.3978 17.9923 17.7311 18.0978 18.2453C18.1169 18.3405 18.5579 20.3403 20.5421 20.6069C22.4592 20.864 23.2836 18.769 23.3219 18.6738C23.5041 18.1882 24.06 17.9311 24.5585 18.112C25.0569 18.2929 25.3062 18.8357 25.124 19.3309C24.6927 20.4926 23.2932 22.5305 20.8872 22.5305Z" fill="#5595D1"/>
</g>
<defs>
<clipPath id="clip0_703_60">
<rect width="310" height="75" fill="white"/>
</clipPath>
</defs>
</svg>
