<svg width="10" height="17" viewBox="0 0 10 17" fill="none" xmlns="http://www.w3.org/2000/svg">
    <path
        d="M0.000392123 4.21521C-0.00213211 4.27476 0.00755128 4.3342 0.0288465 4.38986C0.0501417 4.44553 0.0825985 4.49625 0.124222 4.53891C0.165845 4.58157 0.215754 4.61527 0.270881 4.63792C0.326008 4.66058 0.385186 4.67172 0.444778 4.67066H1.96602C2.22048 4.67066 2.42331 4.4623 2.4565 4.20968C2.62245 3.00007 3.45222 2.11867 4.93105 2.11867C6.19598 2.11867 7.35397 2.75114 7.35397 4.27237C7.35397 5.44327 6.66434 5.98169 5.57458 6.8004C4.33362 7.70208 3.3508 8.75496 3.42087 10.4643L3.42641 10.8644C3.42834 10.9854 3.47776 11.1008 3.564 11.1856C3.65025 11.2705 3.76639 11.318 3.88739 11.318H5.38281C5.50507 11.318 5.62232 11.2694 5.70877 11.183C5.79522 11.0965 5.84379 10.9793 5.84379 10.857V10.6634C5.84379 9.33948 6.34718 8.9541 7.70616 7.92335C8.82911 7.06961 10 6.12183 10 4.13224C10 1.34607 7.64715 0 5.07119 0C2.73493 0 0.175565 1.08792 0.000392123 4.21521ZM2.87138 14.8418C2.87138 15.8246 3.65505 16.5511 4.73375 16.5511C5.8567 16.5511 6.6293 15.8246 6.6293 14.8418C6.6293 13.8239 5.85486 13.1085 4.7319 13.1085C3.65505 13.1085 2.87138 13.8239 2.87138 14.8418Z"
        fill="white" />
</svg>
