<svg width="32" height="32" viewBox="0 0 32 32" fill="none" xmlns="http://www.w3.org/2000/svg">
<path d="M32 16C32 20.2435 30.3143 24.3131 27.3137 27.3137C24.3131 30.3143 20.2435 32 16 32C11.7565 32 7.68687 30.3143 4.68629 27.3137C1.68571 24.3131 0 20.2435 0 16C0 11.7565 1.68571 7.68687 4.68629 4.68629C7.68687 1.68571 11.7565 0 16 0C20.2435 0 24.3131 1.68571 27.3137 4.68629C30.3143 7.68687 32 11.7565 32 16ZM10.992 12.066H12.642C12.918 12.066 13.138 11.84 13.174 11.566C13.354 10.254 14.254 9.298 15.858 9.298C17.23 9.298 18.486 9.984 18.486 11.634C18.486 12.904 17.738 13.488 16.556 14.376C15.21 15.354 14.144 16.496 14.22 18.35L14.226 18.784C14.2281 18.9152 14.2817 19.0403 14.3752 19.1324C14.4688 19.2244 14.5948 19.276 14.726 19.276H16.348C16.4806 19.276 16.6078 19.2233 16.7016 19.1296C16.7953 19.0358 16.848 18.9086 16.848 18.776V18.566C16.848 17.13 17.394 16.712 18.868 15.594C20.086 14.668 21.356 13.64 21.356 11.482C21.356 8.46 18.804 7 16.01 7C13.476 7 10.7 8.18 10.51 11.572C10.5073 11.6366 10.5178 11.7011 10.5409 11.7614C10.564 11.8218 10.5992 11.8768 10.6443 11.9231C10.6895 11.9694 10.7436 12.0059 10.8034 12.0305C10.8632 12.0551 10.9274 12.0671 10.992 12.066ZM15.642 24.952C16.862 24.952 17.7 24.164 17.7 23.098C17.7 21.994 16.86 21.218 15.642 21.218C14.474 21.218 13.624 21.994 13.624 23.098C13.624 24.164 14.472 24.952 15.642 24.952Z" fill="#417FB8"/>
</svg>
