<svg width="304" height="152" viewBox="0 0 304 152" fill="none" xmlns="http://www.w3.org/2000/svg">
<rect width="304" height="152" fill="white"/>
<g clip-path="url(#clip0_892_30)">
<path d="M184.465 22.689C170.733 22.8781 158.744 32.1269 151.709 46.0574C144.302 32.0998 131.949 23.0132 118.081 23.2024C95.9221 23.5132 78.2906 47.3613 78.6961 76.4722C79.1015 105.583 97.3885 128.931 119.541 128.627C133.273 128.438 145.262 119.189 152.297 105.259C159.697 119.223 172.05 128.31 185.918 128.114C208.07 127.81 225.702 103.962 225.303 74.8508C224.897 45.7399 206.61 22.3917 184.458 22.6957L184.465 22.689Z" fill="white"/>
<path d="M119.115 130.316C96.2668 130.316 77.4189 106.292 77.0067 76.4925C76.8039 62.0485 80.9128 48.3882 88.5695 38.0315C96.3276 27.5397 106.802 21.6756 118.054 21.5135C118.203 21.5135 118.359 21.5135 118.507 21.5135C131.496 21.5135 143.687 29.3029 151.668 42.5714C159.379 29.1813 171.449 21.1824 184.438 21C195.73 20.8379 206.32 26.4182 214.369 36.6938C222.309 46.8343 226.797 60.373 226.992 74.817C227.411 104.813 208.996 129.478 185.945 129.796C172.76 129.985 160.4 122.162 152.331 108.745C144.62 122.128 132.55 130.134 119.561 130.309C119.413 130.309 119.257 130.309 119.109 130.309L119.115 130.316ZM118.507 24.8914C118.372 24.8914 118.237 24.8914 118.102 24.8914C107.924 25.0333 98.4023 30.4109 91.2862 40.038C84.0687 49.8069 80.1964 62.7376 80.3856 76.4452C80.7776 104.576 98.3347 127.256 119.521 126.932C132.091 126.756 143.782 118.365 150.797 104.489C151.081 103.928 151.655 103.57 152.29 103.563H152.304C152.925 103.563 153.507 103.908 153.797 104.462C161.177 118.392 173.186 126.621 185.904 126.418C207.09 126.128 224.012 102.996 223.62 74.8643C223.431 61.15 219.201 48.3341 211.713 38.7746C204.428 29.4786 194.919 24.3712 184.897 24.3712C184.762 24.3712 184.627 24.3712 184.485 24.3712C171.915 24.5468 160.224 32.9376 153.209 46.8141C152.925 47.3748 152.351 47.7329 151.716 47.7396H151.702C151.081 47.7396 150.499 47.3951 150.209 46.8411C142.91 33.0727 131.084 24.8914 118.507 24.8914Z" fill="#48302A"/>
<path d="M120.58 96.9731C119.607 97.0407 118.593 97.0407 117.539 96.9731C100.125 95.8247 95.5497 79.1182 95.3605 78.4021C94.6712 75.7809 96.2457 73.099 98.8677 72.4099C101.51 71.7546 104.159 73.2881 104.855 75.889C104.997 76.3822 107.936 86.5088 118.188 87.1776C128.095 87.8531 131.561 76.774 131.703 76.3011C132.48 73.7137 135.21 72.2208 137.805 73.0044C140.394 73.7678 141.88 76.4768 141.123 79.0709C139.346 85.1847 132.859 96.149 120.58 96.9799V96.9731Z" fill="#49302B"/>
<path d="M187.603 96.9731C186.63 97.0407 185.616 97.0407 184.562 96.9731C167.147 95.8247 162.572 79.1182 162.383 78.4021C161.694 75.7809 163.268 73.099 165.89 72.4099C168.533 71.7546 171.182 73.2881 171.878 75.889C172.02 76.3822 174.959 86.5088 185.211 87.1776C195.117 87.8531 198.584 76.774 198.726 76.3011C199.503 73.7137 202.233 72.2208 204.828 73.0044C207.416 73.7678 208.903 76.4768 208.146 79.0709C206.369 85.1847 199.881 96.149 187.603 96.9799V96.9731Z" fill="#49302B"/>
</g>
<defs>
<clipPath id="clip0_892_30">
<rect width="150" height="109.312" fill="white" transform="translate(77 21)"/>
</clipPath>
</defs>
</svg>
